<svg fill="#006666" xmlns="http://www.w3.org/2000/svg" data-name="Layer 1" viewBox="0 0 68 68" x="0px" y="0px"><title>padlock security safety password secure protection </title><path d="M51,66H17a7,7,0,0,1-7-7V37a7,7,0,0,1,7-7H51a7,7,0,0,1,7,7V59A7,7,0,0,1,51,66ZM17,32a5,5,0,0,0-5,5V59a5,5,0,0,0,5,5H51a5,5,0,0,0,5-5V37a5,5,0,0,0-5-5Z"></path><path d="M49,32H19a1,1,0,0,1-1-1V18a16,16,0,0,1,32,0V31A1,1,0,0,1,49,32ZM20,30H48V18a14,14,0,0,0-28,0Z"></path><path d="M36,54.5H32a1,1,0,0,1-1-1V48.13a4,4,0,1,1,6,0V53.5A1,1,0,0,1,36,54.5Zm-3-2h2V47.72a1,1,0,0,1,.33-.74A2,2,0,0,0,36,45.5a2,2,0,0,0-4,0A2,2,0,0,0,32.67,47a1,1,0,0,1,.33.74Z"></path></svg>