<svg fill="#006666" xmlns="http://www.w3.org/2000/svg" data-name="Layer 1" viewBox="0 0 100 100" x="0px" y="0px"><title>34</title><g data-name="Group"><path data-name="Compound Path" d="M47.5,32.6c0-6.1-11.2-9.3-22.2-9.3S3.1,26.5,3.1,32.6V67.4c0,6.1,11.2,9.3,22.2,9.3s22.2-3.2,22.2-9.3ZM25.3,27.3c11.8,0,18.2,3.5,18.2,5.3s-6.4,5.3-18.2,5.3S7.1,34.4,7.1,32.6,13.5,27.3,25.3,27.3ZM7.1,38.2c4.2,2.5,11.2,3.7,18.2,3.7s14-1.3,18.2-3.7V49.7c0,1.8-6.4,5.3-18.2,5.3S7.1,51.5,7.1,49.7ZM25.3,72.7c-11.8,0-18.2-3.5-18.2-5.3V55.2C11.4,57.7,18.4,59,25.3,59s14-1.3,18.2-3.7V67.4C43.5,69.2,37.1,72.7,25.3,72.7Z"></path><path data-name="Path" d="M24.2,50.8h2.2a2,2,0,0,0,0-4H24.2a2,2,0,1,0,0,4Z"></path><path data-name="Path" d="M26.4,63.5H24.2a2,2,0,0,0,0,4h2.2a2,2,0,1,0,0-4Z"></path><path data-name="Path" d="M54.5,27.2V72.8a10,10,0,0,0,10,10h3v-4h-3a6,6,0,0,1-6-6V52h9V48h-9V27.2a6,6,0,0,1,6-6h3v-4h-3A10,10,0,0,0,54.5,27.2Z"></path><path data-name="Compound Path" d="M81.5,59.3h6a9.3,9.3,0,0,0,0-18.7h-6a9.3,9.3,0,0,0,0,18.7Zm0-14.7h6a5.3,5.3,0,0,1,0,10.7h-6a5.3,5.3,0,0,1,0-10.7Z"></path><path data-name="Compound Path" d="M81.5,89.3h6a9.3,9.3,0,0,0,0-18.7h-6a9.3,9.3,0,0,0,0,18.7Zm0-14.7h6a5.3,5.3,0,0,1,0,10.7h-6a5.3,5.3,0,0,1,0-10.7Z"></path><path data-name="Compound Path" d="M81.5,29.3h6a9.3,9.3,0,0,0,0-18.7h-6a9.3,9.3,0,0,0,0,18.7Zm0-14.7h6a5.3,5.3,0,0,1,0,10.7h-6a5.3,5.3,0,0,1,0-10.7Z"></path></g></svg>